<svg width="288" height="88" viewBox="0 0 288 88" fill="none" xmlns="http://www.w3.org/2000/svg">
<path d="M88.473 43.916C88.473 67.154 70.555 86.191 47.784 88L37.981 64.29C39.355 62.281 40.16 59.854 40.16 57.243C40.16 57.009 40.152 56.776 40.139 56.545L55.422 46.001C55.495 46.001 55.566 46.002 55.638 46.002C64.837 46.002 72.321 38.519 72.321 29.319C72.321 20.12 64.837 12.637 55.638 12.637C46.439 12.637 38.954 20.12 38.954 29.319C38.954 29.446 38.957 29.572 38.96 29.698L28.23 44.736C28.035 44.728 27.836 44.721 27.638 44.721C20.732 44.721 15.116 50.338 15.116 57.243C15.116 63.304 19.442 68.372 25.171 69.52L32.181 86.476C13.613 81.226 -1.52588e-05 64.167 -1.52588e-05 43.916C-1.52588e-05 19.484 19.806 -0.321014 44.235 -0.321014C68.668 -0.321014 88.473 19.485 88.473 43.916Z" fill="#C5C3C0"/>
<path d="M21.351 60.279L23.596 65.713C21.591 64.75 19.912 63.084 18.99 60.872C16.998 56.09 19.267 50.577 24.053 48.584C26.367 47.619 28.922 47.613 31.242 48.57C33.563 49.525 35.373 51.327 36.339 53.644C37.296 55.943 37.261 58.406 36.444 60.57L34.123 54.957C32.653 51.43 28.603 49.762 25.076 51.232C21.548 52.699 19.88 56.752 21.351 60.279Z" fill="#C5C3C0"/>
<path d="M55.638 18.204C61.767 18.204 66.754 23.19 66.754 29.32C66.754 35.449 61.767 40.436 55.638 40.436C49.508 40.436 44.523 35.449 44.523 29.32C44.524 23.19 49.509 18.204 55.638 18.204ZM55.657 37.652C60.269 37.652 64.007 33.913 64.007 29.301C64.007 24.689 60.269 20.95 55.657 20.95C51.045 20.95 47.307 24.689 47.307 29.301C47.307 33.913 51.046 37.652 55.657 37.652Z" fill="#C5C3C0"/>
<path d="M272.564 30.267L269.6 35.477C267.317 33.882 264.223 32.922 261.522 32.922C258.435 32.922 256.525 34.2 256.525 36.489C256.525 39.27 259.918 39.917 264.961 41.727C270.382 43.644 273.498 45.897 273.498 50.862C273.498 57.655 268.156 61.47 260.478 61.47C256.736 61.47 252.222 60.504 248.752 58.393L250.914 52.617C253.733 54.106 257.105 54.989 260.111 54.989C264.163 54.989 266.089 53.494 266.089 51.284C266.089 48.755 263.152 47.995 258.411 46.425C253.008 44.621 249.264 42.254 249.264 36.759C249.264 30.562 254.227 27.003 261.368 27.003C266.345 27.003 270.345 28.58 272.564 30.267Z" fill="#C5C3C0"/>
<path d="M232.734 33.56V60.899H225.755V33.56H215.625V27.574H242.834V33.56H232.734Z" fill="#C5C3C0"/>
<path d="M193.546 33.542V41.051H206.902V47.037H193.546V54.858H209.042V60.899H186.569V27.574H209.042V33.542H193.546Z" fill="#C5C3C0"/>
<path d="M156.619 54.429L154.413 60.9H147.097L159.592 27.575H166.617L179.465 60.899H171.902L169.648 54.428L156.619 54.429ZM163.065 35.524L158.514 48.867H167.71L163.065 35.524Z" fill="#C5C3C0"/>
<path d="M133.282 40.455L124.162 59.928H120.224L111.252 40.629V60.899H104.569V27.574H111.237L122.437 51.63L133.239 27.574H139.965V60.899H133.283L133.282 40.455Z" fill="#C5C3C0"/>
<path d="M287.457 31.778C287.457 34.642 285.311 36.427 282.848 36.427C280.376 36.427 278.225 34.642 278.225 31.778C278.225 28.915 280.376 27.142 282.848 27.142C285.312 27.142 287.457 28.915 287.457 31.778ZM279 31.778C279 34.174 280.726 35.679 282.848 35.679C284.962 35.679 286.681 34.174 286.681 31.778C286.681 29.375 284.962 27.893 282.848 27.893C280.732 27.893 279 29.393 279 31.778ZM282.912 29.409C284.107 29.409 284.509 30.041 284.509 30.724C284.509 31.35 284.138 31.77 283.686 31.984L284.757 33.991H283.88L282.977 32.212H282.046V33.991H281.316V29.409H282.912ZM282.053 31.541H282.867C283.394 31.541 283.705 31.21 283.705 30.794C283.705 30.374 283.482 30.104 282.865 30.104H282.052V31.541H282.053Z" fill="#C5C3C0"/>
</svg>
