<?xml version="1.0" encoding="UTF-8" standalone="no"?>
<svg
   width="88.473015"
   height="88.321014"
   viewBox="0 0 88.473015 88.321014"
   fill="none"
   version="1.1"
   id="svg9"
   xmlns="http://www.w3.org/2000/svg"
   xmlns:svg="http://www.w3.org/2000/svg">
  <defs
     id="defs9" />
  <path
     d="m 88.473015,44.237014 c 0,23.238 -17.918,42.275 -40.689,44.084 l -9.803,-23.71 c 1.374,-2.009 2.179,-4.436 2.179,-7.047 0,-0.234 -0.008,-0.467 -0.021,-0.698 l 15.283,-10.544 c 0.073,0 0.144,10e-4 0.216,10e-4 9.199,0 16.683,-7.483 16.683,-16.683 0,-9.199 -7.484,-16.682 -16.683,-16.682 -9.199,0 -16.684,7.483 -16.684,16.682 0,0.127 0.003,0.253 0.006,0.379 l -10.73,15.038 c -0.195,-0.008 -0.394,-0.015 -0.592,-0.015 -6.906,0 -12.522,5.617 -12.522,12.522 0,6.061 4.326,11.129 10.055,12.277 l 7.01,16.956 C 13.613015,81.547014 0,64.488014 0,44.237014 0,19.805014 19.806015,0 44.235015,0 c 24.433,0 44.238,19.806014 44.238,44.237014 z"
     fill="#c5c3c0"
     id="path1" />
  <path
     d="m 21.351015,60.600014 2.245,5.434 c -2.005,-0.963 -3.684,-2.629 -4.606,-4.841 -1.992,-4.782 0.277,-10.295 5.063,-12.288 2.314,-0.965 4.869,-0.971 7.189,-0.014 2.321,0.955 4.131,2.757 5.097,5.074 0.957,2.299 0.922,4.762 0.105,6.926 l -2.321,-5.613 c -1.47,-3.527 -5.52,-5.195 -9.047,-3.725 -3.528,1.467 -5.196,5.52 -3.725,9.047 z"
     fill="#c5c3c0"
     id="path2" />
  <path
     d="m 55.638015,18.525014 c 6.129,0 11.116,4.986 11.116,11.116 0,6.129 -4.987,11.116 -11.116,11.116 -6.13,0 -11.115,-4.987 -11.115,-11.116 10e-4,-6.13 4.986,-11.116 11.115,-11.116 z m 0.019,19.448 c 4.612,0 8.35,-3.739 8.35,-8.351 0,-4.612 -3.738,-8.351 -8.35,-8.351 -4.612,0 -8.35,3.739 -8.35,8.351 0,4.612 3.739,8.351 8.35,8.351 z"
     fill="#c5c3c0"
     id="path3" />
</svg>
